<svg width="25" height="30" viewBox="0 0 25 30" fill="none" xmlns="http://www.w3.org/2000/svg">
<path d="M20.5645 3.22581H18.5484V1.20968C18.5484 0.888851 18.4209 0.581165 18.1941 0.354306C17.9672 0.127448 17.6595 0 17.3387 0C17.0179 0 16.7102 0.127448 16.4833 0.354306C16.2565 0.581165 16.129 0.888851 16.129 1.20968V3.22581H8.87097V1.20968C8.87097 0.888851 8.74352 0.581165 8.51666 0.354306C8.2898 0.127448 7.98212 0 7.66129 0C7.34046 0 7.03278 0.127448 6.80592 0.354306C6.57906 0.581165 6.45161 0.888851 6.45161 1.20968V3.22581H4.43548C3.25912 3.22581 2.13094 3.69311 1.29912 4.52493C0.467308 5.35674 0 6.48493 0 7.66129V25.4032C0 26.5796 0.467308 27.7078 1.29912 28.5396C2.13094 29.3714 3.25912 29.8387 4.43548 29.8387H20.5645C21.7409 29.8387 22.8691 29.3714 23.7009 28.5396C24.5327 27.7078 25 26.5796 25 25.4032V7.66129C25 6.48493 24.5327 5.35674 23.7009 4.52493C22.8691 3.69311 21.7409 3.22581 20.5645 3.22581ZM4.43548 5.64516H6.45161V7.66129C6.45161 7.98212 6.57906 8.2898 6.80592 8.51666C7.03278 8.74352 7.34046 8.87097 7.66129 8.87097C7.98212 8.87097 8.2898 8.74352 8.51666 8.51666C8.74352 8.2898 8.87097 7.98212 8.87097 7.66129V5.64516H16.129V7.66129C16.129 7.98212 16.2565 8.2898 16.4833 8.51666C16.7102 8.74352 17.0179 8.87097 17.3387 8.87097C17.6595 8.87097 17.9672 8.74352 18.1941 8.51666C18.4209 8.2898 18.5484 7.98212 18.5484 7.66129V5.64516H20.5645C21.0992 5.64516 21.612 5.85757 21.9901 6.23567C22.3682 6.61377 22.5806 7.12658 22.5806 7.66129V12.0968H2.41935V7.66129C2.41935 7.12658 2.63177 6.61377 3.00987 6.23567C3.38796 5.85757 3.90077 5.64516 4.43548 5.64516ZM20.5645 27.4194H4.43548C3.90077 27.4194 3.38796 27.2069 3.00987 26.8288C2.63177 26.4507 2.41935 25.9379 2.41935 25.4032V14.5161H22.5806V25.4032C22.5806 25.9379 22.3682 26.4507 21.9901 26.8288C21.612 27.2069 21.0992 27.4194 20.5645 27.4194Z" fill="#3C3733"/>
</svg>
